<?xml version="1.0" encoding="UTF-8" standalone="no"?>
<!-- Created with Inkscape (http://www.inkscape.org/) -->

<svg
   xmlns:dc="http://purl.org/dc/elements/1.1/"
   xmlns:cc="http://creativecommons.org/ns#"
   xmlns:rdf="http://www.w3.org/1999/02/22-rdf-syntax-ns#"
   xmlns:svg="http://www.w3.org/2000/svg"
   xmlns="http://www.w3.org/2000/svg"
   xmlns:sodipodi="http://sodipodi.sourceforge.net/DTD/sodipodi-0.dtd"
   xmlns:inkscape="http://www.inkscape.org/namespaces/inkscape"
   width="210mm"
   height="297mm"
   viewBox="0 0 210 297"
   version="1.1"
   id="svg8"
   inkscape:version="0.92.4 (5da689c313, 2019-01-14)"
   sodipodi:docname="TempLogo.svg">
  <defs
     id="defs2" />
  <sodipodi:namedview
     id="base"
     pagecolor="#ffffff"
     bordercolor="#666666"
     borderopacity="1.0"
     inkscape:pageopacity="0.0"
     inkscape:pageshadow="2"
     inkscape:zoom="0.49497475"
     inkscape:cx="-1406.8966"
     inkscape:cy="632.6071"
     inkscape:document-units="mm"
     inkscape:current-layer="layer1"
     showgrid="false"
     inkscape:pagecheckerboard="true"
     inkscape:window-width="1858"
     inkscape:window-height="1057"
     inkscape:window-x="54"
     inkscape:window-y="-8"
     inkscape:window-maximized="1" />
  <metadata
     id="metadata5">
    <rdf:RDF>
      <cc:Work
         rdf:about="">
        <dc:format>image/svg+xml</dc:format>
        <dc:type
           rdf:resource="http://purl.org/dc/dcmitype/StillImage" />
        <dc:title></dc:title>
      </cc:Work>
    </rdf:RDF>
  </metadata>
  <g
     inkscape:label="Ebene 1"
     inkscape:groupmode="layer"
     id="layer1">
    <circle
       style="opacity:1;fill:#3687ff;fill-opacity:1;fill-rule:nonzero;stroke:none;stroke-width:1;stroke-linecap:round;stroke-linejoin:round;stroke-miterlimit:4;stroke-dasharray:none;stroke-dashoffset:0;stroke-opacity:1;paint-order:normal"
       id="path815"
       cx="-302.38095"
       cy="113.30357"
       r="100.54166"
       inkscape:export-xdpi="129.34738"
       inkscape:export-ydpi="129.34738" />
    <circle
       style="opacity:1;fill:#ffffff;fill-opacity:1;fill-rule:nonzero;stroke:#ffffff;stroke-width:8.09399986;stroke-linecap:round;stroke-linejoin:round;stroke-miterlimit:4;stroke-dasharray:none;stroke-dashoffset:0;stroke-opacity:1;paint-order:normal"
       id="path848"
       cx="-322.77054"
       cy="105.36037"
       r="7.8844509" />
    <g
       id="g870"
       transform="matrix(0.90159849,0,0,0.90159849,-25.430908,16.697787)">
      <path
         inkscape:connector-curvature="0"
         id="path817"
         d="m -334.87311,35.455525 c -2.38268,0 -4.30062,1.918731 -4.30062,4.301408 v 15.713422 a 43.91868,43.91868 0 0 0 -14.27604,5.941071 l -11.13101,-11.131015 c -1.68478,-1.684808 -4.39757,-1.684808 -6.08232,0 l -7.18703,7.187025 c -1.68481,1.684808 -1.68481,4.397538 0,6.082346 l 11.10478,11.104766 a 43.91868,43.91868 0 0 0 -5.92102,14.302266 h -15.70803 c -2.38266,0 -4.30065,1.917946 -4.30065,4.300636 v 10.16374 c 0,2.38268 1.91799,4.30063 4.30065,4.30063 h 15.73349 a 43.91868,43.91868 0 0 0 5.87776,14.32003 l -11.08698,11.08701 c -1.68481,1.68481 -1.68481,4.39752 0,6.08233 l 7.18703,7.18704 c 1.68471,1.68481 4.39754,1.68481 6.08232,0 l 11.11943,-11.11943 a 43.91868,43.91868 0 0 0 14.28762,5.89088 v 15.7528 c 0,2.38268 1.91794,4.30063 4.30062,4.30063 h 10.16375 c 2.38268,0 4.30062,-1.91795 4.30062,-4.30063 v -15.71343 a 43.91868,43.91868 0 0 0 14.27604,-5.94183 l 11.13101,11.13101 c 1.68478,1.68481 4.39752,1.68481 6.08235,0 l 7.18703,-7.18704 c 1.68475,-1.68481 1.68475,-4.39752 0,-6.08233 l -11.10401,-11.104 a 43.91868,43.91868 0 0 0 5.92101,-14.30304 h 15.70648 c 2.3826,0 4.30062,-1.91795 4.30062,-4.30063 V 93.25745 c 0,-2.38269 -1.91802,-4.300636 -4.30062,-4.300636 h -15.73352 a 43.91868,43.91868 0 0 0 -5.87697,-14.32002 l 11.08701,-11.087012 c 1.68471,-1.684808 1.68471,-4.397538 0,-6.082346 l -7.18703,-7.187025 c -0.84243,-0.842405 -1.9422,-1.26294 -3.04159,-1.26294 -1.09938,0 -2.19836,0.420535 -3.04076,1.26294 l -11.11943,11.119435 a 43.91868,43.91868 0 0 0 -14.28762,-5.890891 V 39.756933 c 0,-2.382677 -1.91794,-4.301408 -4.30062,-4.301408 z m 5.0819,35.622493 a 27.261803,27.261803 0 0 1 27.26128,27.261302 27.261803,27.261803 0 0 1 -27.26128,27.26207 27.261803,27.261803 0 0 1 -27.26212,-27.26207 27.261803,27.261803 0 0 1 27.26212,-27.261302 z"
         style="opacity:1;fill:#ffffff;fill-opacity:1;fill-rule:nonzero;stroke:#ffffff;stroke-width:8.09399986;stroke-linecap:round;stroke-linejoin:round;stroke-miterlimit:4;stroke-dasharray:none;stroke-dashoffset:0;stroke-opacity:1;paint-order:normal" />
      <path
         style="opacity:1;fill:#939393;fill-opacity:1;fill-rule:nonzero;stroke:#3687ff;stroke-width:11.10599995;stroke-linecap:round;stroke-linejoin:round;stroke-miterlimit:4;stroke-dasharray:none;stroke-dashoffset:0;stroke-opacity:1;paint-order:normal"
         d="m -323.33702,92.68353 c -5.65809,0 -10.213,4.554908 -10.213,10.213 v 15.03872 1.90361 45.30514 c 4.64934,-9.45553 9.4137,-18.85558 14.14277,-28.27142 2.05003,-3.70393 3.46186,-7.91652 6.59558,-10.89669 1.25664,-1.10082 2.72015,-2.08603 4.34555,-2.51878 4.43802,-0.48064 8.92216,-0.26811 13.37975,-0.3543 21.71175,-0.0104 43.42374,0.0253 65.13549,0.044 v -5.21157 c 0,-5.6581 -4.55531,-10.21342 -10.21341,-10.21342 h -46.75102 v -4.82531 c 0,-5.658088 -4.55532,-10.212996 -10.21341,-10.212996 z m 17.92467,33.57106 c -5.6581,0 -7.86889,5.06333 -10.213,10.21301 l -14.91743,32.77107 c -2.34411,5.14967 1.54766,13.22066 7.20576,13.22066 h 83.17273 c 5.6581,0 7.81555,-5.08855 10.21341,-10.21342 l 15.13176,-32.34116 c 2.39785,-5.12489 -1.76199,-13.65016 -7.42009,-13.65016 z"
         id="path865"
         inkscape:connector-curvature="0" />
      <path
         inkscape:connector-curvature="0"
         id="rect850"
         d="m -323.33702,92.68353 c -5.65809,0 -10.213,4.554908 -10.213,10.213 v 15.03872 1.90361 45.30514 c 4.64934,-9.45553 9.4137,-18.85558 14.14277,-28.27142 2.05003,-3.70393 3.46186,-7.91652 6.59558,-10.89669 1.25664,-1.10082 2.72015,-2.08603 4.34555,-2.51878 4.43802,-0.48064 8.92216,-0.26811 13.37975,-0.3543 21.71175,-0.0104 43.42374,0.0253 65.13549,0.044 v -5.21157 c 0,-5.6581 -4.55531,-10.21342 -10.21341,-10.21342 h -46.75102 v -4.82531 c 0,-5.658088 -4.55532,-10.212996 -10.21341,-10.212996 z m 17.92467,33.57106 c -5.6581,0 -7.86889,5.06333 -10.213,10.21301 l -14.91743,32.77107 c -2.34411,5.14967 1.54766,13.22066 7.20576,13.22066 h 83.17273 c 5.6581,0 7.81555,-5.08855 10.21341,-10.21342 l 15.13176,-32.34116 c 2.39785,-5.12489 -1.76199,-13.65016 -7.42009,-13.65016 z"
         style="opacity:1;fill:#ffffff;fill-opacity:1;fill-rule:nonzero;stroke:none;stroke-width:6.5058012;stroke-linecap:round;stroke-linejoin:round;stroke-miterlimit:4;stroke-dasharray:none;stroke-dashoffset:0;stroke-opacity:1;paint-order:normal" />
    </g>
  </g>
</svg>
